<svg width="502" height="292" viewBox="0 0 502 292" fill="none" xmlns="http://www.w3.org/2000/svg">
<path opacity="0.2" d="M29.9602 289.159H19.8182V241.375H29.9602V259.188H78V271.347H29.9602V289.159ZM48.9091 182.696C55.2538 182.696 60.6515 183.899 65.1023 186.304C69.553 188.69 72.9527 191.948 75.3011 196.077C77.6307 200.187 78.7955 204.808 78.7955 209.94C78.7955 215.111 77.6212 219.751 75.2727 223.861C72.9242 227.971 69.5246 231.219 65.0739 233.605C60.6231 235.991 55.2348 237.185 48.9091 237.185C42.5644 237.185 37.1667 235.991 32.7159 233.605C28.2652 231.219 24.875 227.971 22.5455 223.861C20.197 219.751 19.0227 215.111 19.0227 209.94C19.0227 204.808 20.197 200.187 22.5455 196.077C24.875 191.948 28.2652 188.69 32.7159 186.304C37.1667 183.899 42.5644 182.696 48.9091 182.696ZM48.9091 195.168C44.7992 195.168 41.3333 195.783 38.5114 197.014C35.6894 198.226 33.5492 199.94 32.0909 202.156C30.6326 204.372 29.9034 206.967 29.9034 209.94C29.9034 212.914 30.6326 215.509 32.0909 217.724C33.5492 219.94 35.6894 221.664 38.5114 222.895C41.3333 224.107 44.7992 224.713 48.9091 224.713C53.0189 224.713 56.4848 224.107 59.3068 222.895C62.1288 221.664 64.2689 219.94 65.7273 217.724C67.1856 215.509 67.9148 212.914 67.9148 209.94C67.9148 206.967 67.1856 204.372 65.7273 202.156C64.2689 199.94 62.1288 198.226 59.3068 197.014C56.4848 195.783 53.0189 195.168 48.9091 195.168ZM78 173.584H19.8182V150.629C19.8182 146.216 20.661 142.457 22.3466 139.351C24.0133 136.245 26.3333 133.877 29.3068 132.249C32.2614 130.601 35.6705 129.777 39.5341 129.777C43.3977 129.777 46.8068 130.61 49.7614 132.277C52.7159 133.944 55.017 136.358 56.6648 139.521C58.3125 142.665 59.1364 146.472 59.1364 150.942V165.572H49.2784V152.93C49.2784 150.563 48.8712 148.612 48.0568 147.078C47.2235 145.525 46.0777 144.37 44.6193 143.612C43.142 142.836 41.447 142.447 39.5341 142.447C37.6023 142.447 35.9167 142.836 34.4773 143.612C33.0189 144.37 31.892 145.525 31.0966 147.078C30.2822 148.631 29.875 150.601 29.875 152.987V161.283H78V173.584ZM19.8182 78.2997H78V90.6009H31.4943V90.9418L39.8466 104.266H28.9375L19.8182 89.8622V78.2997ZM67.0909 32.625H64.0227C61.6932 32.625 59.553 32.1326 57.6023 31.1477C55.6326 30.1439 54.0606 28.6951 52.8864 26.8011C51.6932 24.8883 51.0966 22.5587 51.0966 19.8125C51.0966 17.0284 51.6837 14.6894 52.858 12.7955C54.0322 10.8826 55.6042 9.44318 57.5739 8.47727C59.5246 7.49242 61.6742 7 64.0227 7H67.0909C69.4205 7 71.5701 7.49242 73.5398 8.47727C75.4905 9.46212 77.053 10.911 78.2273 12.8239C79.4205 14.7367 80.017 17.0663 80.017 19.8125C80.017 22.5966 79.4205 24.9356 78.2273 26.8295C77.053 28.7235 75.4905 30.1629 73.5398 31.1477C71.5701 32.1326 69.4205 32.625 67.0909 32.625ZM64.0227 24.358H67.0909C68.4356 24.358 69.7045 24.036 70.8977 23.392C72.0909 22.7292 72.6875 21.536 72.6875 19.8125C72.6875 18.089 72.1004 16.9148 70.9261 16.2898C69.7519 15.6458 68.4735 15.3239 67.0909 15.3239H64.0227C62.6402 15.3239 61.3523 15.6269 60.1591 16.233C58.9659 16.839 58.3693 18.0322 58.3693 19.8125C58.3693 21.517 58.9659 22.7008 60.1591 23.3636C61.3523 24.0265 62.6402 24.358 64.0227 24.358ZM33.7955 62.483H30.7273C28.3788 62.483 26.2292 61.9811 24.2784 60.9773C22.3087 59.9735 20.7367 58.5246 19.5625 56.6307C18.3883 54.7178 17.8011 52.4072 17.8011 49.6989C17.8011 46.8958 18.3883 44.5473 19.5625 42.6534C20.7367 40.7595 22.3087 39.3201 24.2784 38.3352C26.2292 37.3504 28.3788 36.858 30.7273 36.858H33.7955C36.1439 36.858 38.2936 37.3598 40.2443 38.3636C42.1951 39.3485 43.7576 40.7973 44.9318 42.7102C46.0871 44.6042 46.6648 46.9337 46.6648 49.6989C46.6648 52.464 46.0777 54.803 44.9034 56.7159C43.7102 58.6098 42.1477 60.0492 40.2159 61.0341C38.2651 62 36.125 62.483 33.7955 62.483ZM30.7273 54.1591H33.7955C35.178 54.1591 36.4564 53.8371 37.6307 53.1932C38.8049 52.5303 39.392 51.3655 39.392 49.6989C39.392 47.9564 38.8049 46.7727 37.6307 46.1477C36.4564 45.5038 35.178 45.1818 33.7955 45.1818H30.7273C29.3447 45.1818 28.0568 45.4848 26.8636 46.0909C25.6705 46.697 25.0739 47.8996 25.0739 49.6989C25.0739 51.3845 25.6799 52.5492 26.892 53.1932C28.1042 53.8371 29.3826 54.1591 30.7273 54.1591ZM78 58.733L19.8182 18.733V11.2898L78 51.2898V58.733Z" fill="#1F1F1F"/>
<g clip-path="url(#clip0_231_2503)">
<path d="M131 55.5H467" stroke="#A8A8B2" stroke-width="28" stroke-linecap="round"/>
<path d="M131 55.5H463" stroke="#228B22" stroke-width="28" stroke-linecap="round"/>
<path d="M125.459 19.8281H123.592C123.558 19.5866 123.489 19.3722 123.384 19.1847C123.278 18.9943 123.143 18.8324 122.979 18.6989C122.814 18.5653 122.624 18.4631 122.408 18.392C122.195 18.321 121.963 18.2855 121.713 18.2855C121.261 18.2855 120.868 18.3977 120.533 18.6222C120.197 18.8437 119.938 19.1676 119.753 19.5938C119.568 20.017 119.476 20.5312 119.476 21.1364C119.476 21.7585 119.568 22.2812 119.753 22.7045C119.94 23.1278 120.202 23.4474 120.537 23.6634C120.872 23.8793 121.26 23.9872 121.7 23.9872C121.947 23.9872 122.176 23.9545 122.386 23.8892C122.599 23.8239 122.788 23.7287 122.953 23.6037C123.118 23.4759 123.254 23.321 123.362 23.1392C123.473 22.9574 123.55 22.75 123.592 22.517L125.459 22.5256C125.411 22.9261 125.29 23.3125 125.097 23.6847C124.906 24.054 124.649 24.3849 124.325 24.6776C124.004 24.9673 123.621 25.1974 123.175 25.3679C122.732 25.5355 122.23 25.6193 121.67 25.6193C120.892 25.6193 120.196 25.4432 119.582 25.0909C118.972 24.7386 118.489 24.2287 118.134 23.5611C117.781 22.8935 117.605 22.0852 117.605 21.1364C117.605 20.1847 117.784 19.375 118.142 18.7074C118.5 18.0398 118.986 17.5312 119.599 17.1818C120.213 16.8295 120.903 16.6534 121.67 16.6534C122.176 16.6534 122.645 16.7244 123.077 16.8665C123.511 17.0085 123.896 17.2159 124.232 17.4886C124.567 17.7585 124.839 18.0895 125.05 18.4815C125.263 18.8736 125.399 19.3224 125.459 19.8281ZM126.782 25.5V16.7727H132.663V18.294H128.627V20.3736H132.36V21.8949H128.627V23.9787H132.68V25.5H126.782ZM137.223 25.5H134.13V16.7727H137.249C138.127 16.7727 138.882 16.9474 139.516 17.2969C140.15 17.6435 140.637 18.142 140.978 18.7926C141.321 19.4432 141.493 20.2216 141.493 21.1278C141.493 22.0369 141.321 22.8182 140.978 23.4716C140.637 24.125 140.147 24.6264 139.507 24.9759C138.871 25.3253 138.11 25.5 137.223 25.5ZM135.975 23.919H137.147C137.692 23.919 138.151 23.8224 138.523 23.6293C138.898 23.4332 139.179 23.1307 139.367 22.7216C139.557 22.3097 139.652 21.7784 139.652 21.1278C139.652 20.483 139.557 19.956 139.367 19.5469C139.179 19.1378 138.9 18.8366 138.527 18.6435C138.155 18.4503 137.696 18.3537 137.151 18.3537H135.975V23.919ZM143.872 25.5H141.895L144.908 16.7727H147.286L150.294 25.5H148.317L146.131 18.767H146.062L143.872 25.5ZM143.749 22.0696H148.419V23.5099H143.749V22.0696ZM151.344 25.5V16.7727H154.788C155.447 16.7727 156.009 16.8906 156.475 17.1264C156.944 17.3594 157.3 17.6903 157.545 18.1193C157.792 18.5455 157.915 19.0469 157.915 19.6236C157.915 20.2031 157.79 20.7017 157.54 21.1193C157.29 21.5341 156.928 21.8523 156.454 22.0739C155.982 22.2955 155.411 22.4062 154.741 22.4062H152.435V20.9233H154.442C154.795 20.9233 155.087 20.875 155.32 20.7784C155.553 20.6818 155.727 20.5369 155.84 20.3438C155.957 20.1506 156.015 19.9105 156.015 19.6236C156.015 19.3338 155.957 19.0895 155.84 18.8906C155.727 18.6918 155.552 18.5412 155.316 18.4389C155.083 18.3338 154.789 18.2812 154.434 18.2812H153.19V25.5H151.344ZM156.058 21.5284L158.227 25.5H156.19L154.067 21.5284H156.058ZM164.639 25.6278C164.037 25.6278 163.517 25.5199 163.079 25.304C162.642 25.0881 162.305 24.7955 162.069 24.4261C161.836 24.054 161.72 23.6392 161.72 23.1818C161.72 22.8409 161.788 22.5384 161.924 22.2741C162.061 22.0099 162.251 21.767 162.495 21.5455C162.74 21.321 163.024 21.098 163.348 20.8764L165.039 19.7642C165.258 19.625 165.419 19.4787 165.521 19.3253C165.623 19.169 165.674 19 165.674 18.8182C165.674 18.6449 165.605 18.4844 165.466 18.3366C165.326 18.1889 165.129 18.1165 164.873 18.1193C164.703 18.1193 164.555 18.1577 164.43 18.2344C164.305 18.3082 164.207 18.4062 164.136 18.5284C164.068 18.6477 164.034 18.7812 164.034 18.929C164.034 19.1108 164.085 19.2955 164.187 19.483C164.289 19.6705 164.426 19.8693 164.596 20.0795C164.767 20.2869 164.953 20.5114 165.154 20.7528L169.292 25.5H167.4L163.949 21.6562C163.721 21.3977 163.494 21.1278 163.267 20.8466C163.042 20.5625 162.855 20.2614 162.704 19.9432C162.554 19.6222 162.478 19.2741 162.478 18.8991C162.478 18.4759 162.576 18.0952 162.772 17.7571C162.971 17.419 163.25 17.152 163.608 16.956C163.966 16.7571 164.383 16.6577 164.86 16.6577C165.326 16.6577 165.728 16.7528 166.066 16.9432C166.407 17.1307 166.669 17.3807 166.85 17.6932C167.035 18.0028 167.127 18.3437 167.127 18.7159C167.127 19.1278 167.025 19.5014 166.821 19.8366C166.619 20.169 166.335 20.4673 165.968 20.7315L164.187 22.0142C163.946 22.1903 163.767 22.3707 163.65 22.5554C163.537 22.7372 163.48 22.9119 163.48 23.0795C163.48 23.2869 163.531 23.473 163.633 23.6378C163.735 23.8026 163.88 23.9332 164.068 24.0298C164.255 24.1236 164.475 24.1705 164.728 24.1705C165.035 24.1705 165.338 24.1009 165.636 23.9616C165.937 23.8196 166.21 23.6193 166.454 23.3608C166.701 23.0994 166.899 22.7898 167.047 22.4318C167.194 22.0739 167.268 21.6776 167.268 21.2429H168.772C168.772 21.777 168.714 22.2585 168.598 22.6875C168.481 23.1136 168.319 23.4858 168.112 23.804C167.904 24.1193 167.667 24.3778 167.4 24.5795C167.315 24.6335 167.233 24.6847 167.153 24.733C167.074 24.7812 166.991 24.8324 166.906 24.8864C166.582 25.1477 166.22 25.3366 165.819 25.4531C165.422 25.5696 165.028 25.6278 164.639 25.6278ZM177.594 19.2827C177.56 18.9389 177.414 18.6719 177.156 18.4815C176.897 18.2912 176.546 18.196 176.103 18.196C175.802 18.196 175.548 18.2386 175.34 18.3239C175.133 18.4062 174.974 18.5213 174.863 18.669C174.755 18.8168 174.701 18.9844 174.701 19.1719C174.695 19.3281 174.728 19.4645 174.799 19.581C174.873 19.6974 174.974 19.7983 175.102 19.8835C175.229 19.9659 175.377 20.0384 175.545 20.1009C175.712 20.1605 175.891 20.2116 176.082 20.2543L176.866 20.4418C177.246 20.527 177.596 20.6406 177.914 20.7827C178.232 20.9247 178.508 21.0994 178.741 21.3068C178.974 21.5142 179.154 21.7585 179.282 22.0398C179.413 22.321 179.479 22.6435 179.482 23.0071C179.479 23.5412 179.343 24.0043 179.073 24.3963C178.806 24.7855 178.42 25.0881 177.914 25.304C177.411 25.517 176.805 25.6236 176.094 25.6236C175.39 25.6236 174.776 25.5156 174.254 25.2997C173.734 25.0838 173.327 24.7642 173.035 24.3409C172.745 23.9148 172.593 23.3878 172.579 22.7599H174.364C174.384 23.0526 174.468 23.2969 174.616 23.4929C174.766 23.6861 174.967 23.8324 175.217 23.9318C175.469 24.0284 175.755 24.0767 176.073 24.0767C176.386 24.0767 176.657 24.0312 176.887 23.9403C177.12 23.8494 177.3 23.723 177.428 23.5611C177.556 23.3991 177.62 23.2131 177.62 23.0028C177.62 22.8068 177.562 22.642 177.445 22.5085C177.332 22.375 177.164 22.2614 176.942 22.1676C176.724 22.0739 176.455 21.9886 176.137 21.9119L175.187 21.6733C174.451 21.4943 173.87 21.2145 173.444 20.8338C173.018 20.4531 172.806 19.9403 172.809 19.2955C172.806 18.767 172.947 18.3054 173.231 17.9105C173.518 17.5156 173.911 17.2074 174.411 16.9858C174.911 16.7642 175.479 16.6534 176.116 16.6534C176.763 16.6534 177.329 16.7642 177.812 16.9858C178.298 17.2074 178.675 17.5156 178.945 17.9105C179.215 18.3054 179.354 18.7628 179.363 19.2827H177.594ZM180.723 25.5V16.7727H182.569V20.6207H182.684L185.824 16.7727H188.036L184.797 20.6804L188.074 25.5H185.867L183.476 21.9119L182.569 23.0199V25.5H180.723ZM188.485 16.7727H190.552L192.542 20.5312H192.627L194.618 16.7727H196.684L193.501 22.4148V25.5H191.669V22.4148L188.485 16.7727ZM200.469 25.5V16.7727H203.913C204.575 16.7727 205.138 16.8991 205.604 17.152C206.07 17.402 206.425 17.75 206.67 18.196C206.917 18.6392 207.04 19.1506 207.04 19.7301C207.04 20.3097 206.915 20.821 206.665 21.2642C206.415 21.7074 206.053 22.0526 205.579 22.2997C205.107 22.5469 204.536 22.6705 203.866 22.6705H201.671V21.1918H203.567C203.923 21.1918 204.215 21.1307 204.445 21.0085C204.678 20.8835 204.852 20.7116 204.965 20.4929C205.082 20.2713 205.14 20.017 205.14 19.7301C205.14 19.4403 205.082 19.1875 204.965 18.9716C204.852 18.7528 204.678 18.5838 204.445 18.4645C204.212 18.3423 203.917 18.2812 203.559 18.2812H202.315V25.5H200.469ZM208.239 25.5V16.7727H214.12V18.294H210.084V20.3736H213.817V21.8949H210.084V23.9787H214.137V25.5H208.239ZM215.587 25.5V16.7727H219.03C219.689 16.7727 220.251 16.8906 220.717 17.1264C221.186 17.3594 221.543 17.6903 221.787 18.1193C222.034 18.5455 222.158 19.0469 222.158 19.6236C222.158 20.2031 222.033 20.7017 221.783 21.1193C221.533 21.5341 221.17 21.8523 220.696 22.0739C220.224 22.2955 219.653 22.4062 218.983 22.4062H216.678V20.9233H218.685C219.037 20.9233 219.33 20.875 219.562 20.7784C219.795 20.6818 219.969 20.5369 220.082 20.3438C220.199 20.1506 220.257 19.9105 220.257 19.6236C220.257 19.3338 220.199 19.0895 220.082 18.8906C219.969 18.6918 219.794 18.5412 219.558 18.4389C219.325 18.3338 219.031 18.2812 218.676 18.2812H217.432V25.5H215.587ZM220.3 21.5284L222.469 25.5H220.432L218.31 21.5284H220.3ZM223.462 25.5V16.7727H229.24V18.294H225.307V20.3736H228.857V21.8949H225.307V25.5H223.462ZM238.501 21.1364C238.501 22.0881 238.321 22.8977 237.96 23.5653C237.602 24.233 237.113 24.7429 236.494 25.0952C235.877 25.4446 235.184 25.6193 234.414 25.6193C233.639 25.6193 232.943 25.4432 232.326 25.0909C231.71 24.7386 231.223 24.2287 230.865 23.5611C230.507 22.8935 230.328 22.0852 230.328 21.1364C230.328 20.1847 230.507 19.375 230.865 18.7074C231.223 18.0398 231.71 17.5312 232.326 17.1818C232.943 16.8295 233.639 16.6534 234.414 16.6534C235.184 16.6534 235.877 16.8295 236.494 17.1818C237.113 17.5312 237.602 18.0398 237.96 18.7074C238.321 19.375 238.501 20.1847 238.501 21.1364ZM236.63 21.1364C236.63 20.5199 236.538 20 236.353 19.5767C236.172 19.1534 235.914 18.8324 235.582 18.6136C235.25 18.3949 234.86 18.2855 234.414 18.2855C233.968 18.2855 233.579 18.3949 233.247 18.6136C232.914 18.8324 232.656 19.1534 232.471 19.5767C232.289 20 232.199 20.5199 232.199 21.1364C232.199 21.7528 232.289 22.2727 232.471 22.696C232.656 23.1193 232.914 23.4403 233.247 23.6591C233.579 23.8778 233.968 23.9872 234.414 23.9872C234.86 23.9872 235.25 23.8778 235.582 23.6591C235.914 23.4403 236.172 23.1193 236.353 22.696C236.538 22.2727 236.63 21.7528 236.63 21.1364ZM239.868 25.5V16.7727H243.311C243.97 16.7727 244.533 16.8906 244.999 17.1264C245.467 17.3594 245.824 17.6903 246.068 18.1193C246.315 18.5455 246.439 19.0469 246.439 19.6236C246.439 20.2031 246.314 20.7017 246.064 21.1193C245.814 21.5341 245.452 21.8523 244.977 22.0739C244.506 22.2955 243.935 22.4062 243.264 22.4062H240.959V20.9233H242.966C243.318 20.9233 243.611 20.875 243.844 20.7784C244.077 20.6818 244.25 20.5369 244.364 20.3438C244.48 20.1506 244.538 19.9105 244.538 19.6236C244.538 19.3338 244.48 19.0895 244.364 18.8906C244.25 18.6918 244.075 18.5412 243.839 18.4389C243.607 18.3338 243.313 18.2812 242.957 18.2812H241.713V25.5H239.868ZM244.581 21.5284L246.75 25.5H244.713L242.591 21.5284H244.581ZM247.743 16.7727H250.018L252.422 22.6364H252.524L254.928 16.7727H257.203V25.5H255.413V19.8196H255.341L253.082 25.4574H251.864L249.605 19.7983H249.533V25.5H247.743V16.7727ZM260.228 25.5H258.25L261.263 16.7727H263.641L266.65 25.5H264.672L262.486 18.767H262.418L260.228 25.5ZM260.104 22.0696H264.775V23.5099H260.104V22.0696ZM275 16.7727V25.5H273.406L269.609 20.0071H269.545V25.5H267.7V16.7727H269.319L273.086 22.2614H273.163V16.7727H275ZM284.224 19.8281H282.358C282.324 19.5866 282.254 19.3722 282.149 19.1847C282.044 18.9943 281.909 18.8324 281.744 18.6989C281.58 18.5653 281.389 18.4631 281.173 18.392C280.96 18.321 280.729 18.2855 280.479 18.2855C280.027 18.2855 279.634 18.3977 279.298 18.6222C278.963 18.8437 278.703 19.1676 278.518 19.5938C278.334 20.017 278.241 20.5312 278.241 21.1364C278.241 21.7585 278.334 22.2812 278.518 22.7045C278.706 23.1278 278.967 23.4474 279.303 23.6634C279.638 23.8793 280.026 23.9872 280.466 23.9872C280.713 23.9872 280.942 23.9545 281.152 23.8892C281.365 23.8239 281.554 23.7287 281.719 23.6037C281.884 23.4759 282.02 23.321 282.128 23.1392C282.239 22.9574 282.315 22.75 282.358 22.517L284.224 22.5256C284.176 22.9261 284.055 23.3125 283.862 23.6847C283.672 24.054 283.415 24.3849 283.091 24.6776C282.77 24.9673 282.386 25.1974 281.94 25.3679C281.497 25.5355 280.996 25.6193 280.436 25.6193C279.658 25.6193 278.962 25.4432 278.348 25.0909C277.737 24.7386 277.254 24.2287 276.899 23.5611C276.547 22.8935 276.371 22.0852 276.371 21.1364C276.371 20.1847 276.55 19.375 276.908 18.7074C277.266 18.0398 277.751 17.5312 278.365 17.1818C278.979 16.8295 279.669 16.6534 280.436 16.6534C280.942 16.6534 281.411 16.7244 281.842 16.8665C282.277 17.0085 282.662 17.2159 282.997 17.4886C283.332 17.7585 283.605 18.0895 283.815 18.4815C284.028 18.8736 284.165 19.3224 284.224 19.8281ZM285.548 25.5V16.7727H291.428V18.294H287.393V20.3736H291.126V21.8949H287.393V23.9787H291.445V25.5H285.548Z" fill="#565353"/>
<rect x="433" y="21.5" width="68" height="68" rx="34" fill="white" fill-opacity="0.7"/>
<rect x="433" y="21.5" width="68" height="68" rx="34" stroke="#228B22" stroke-width="2"/>
<path d="M456.865 50.6534C457.314 50.6534 457.746 50.7287 458.161 50.8793C458.578 51.0298 458.95 51.2699 459.277 51.5994C459.607 51.929 459.866 52.3665 460.057 52.9119C460.25 53.4545 460.348 54.1207 460.351 54.9105C460.351 55.652 460.267 56.3139 460.099 56.8963C459.935 57.4759 459.697 57.9688 459.388 58.375C459.078 58.7812 458.705 59.0909 458.267 59.304C457.83 59.5142 457.341 59.6193 456.801 59.6193C456.219 59.6193 455.705 59.5071 455.259 59.2827C454.813 59.0554 454.453 58.7472 454.18 58.358C453.911 57.9659 453.747 57.5256 453.69 57.0369H455.51C455.581 57.3551 455.73 57.6023 455.957 57.7784C456.185 57.9517 456.466 58.0384 456.801 58.0384C457.369 58.0384 457.801 57.7912 458.097 57.2969C458.392 56.7997 458.541 56.1193 458.544 55.2557H458.484C458.354 55.5114 458.178 55.7315 457.956 55.9162C457.734 56.098 457.48 56.2386 457.193 56.3381C456.909 56.4375 456.607 56.4872 456.286 56.4872C455.771 56.4872 455.312 56.3665 454.909 56.125C454.506 55.8835 454.188 55.5511 453.955 55.1278C453.722 54.7045 453.605 54.2216 453.605 53.679C453.602 53.0938 453.737 52.5724 454.01 52.1151C454.283 51.6577 454.663 51.2997 455.152 51.0412C455.643 50.7798 456.214 50.6506 456.865 50.6534ZM456.878 52.1023C456.591 52.1023 456.335 52.1705 456.111 52.3068C455.889 52.4432 455.713 52.6264 455.582 52.8565C455.455 53.0866 455.392 53.3437 455.395 53.6278C455.395 53.9148 455.457 54.1733 455.582 54.4034C455.71 54.6307 455.884 54.8125 456.102 54.9489C456.324 55.0824 456.577 55.1491 456.861 55.1491C457.074 55.1491 457.271 55.1094 457.453 55.0298C457.635 54.9503 457.793 54.8409 457.926 54.7017C458.063 54.5597 458.169 54.3963 458.246 54.2116C458.322 54.027 458.361 53.831 458.361 53.6236C458.358 53.348 458.293 53.0952 458.165 52.8651C458.037 52.6349 457.861 52.4503 457.636 52.3111C457.412 52.1719 457.159 52.1023 456.878 52.1023ZM464.787 50.6534C465.236 50.6534 465.668 50.7287 466.082 50.8793C466.5 51.0298 466.872 51.2699 467.199 51.5994C467.528 51.929 467.788 52.3665 467.979 52.9119C468.172 53.4545 468.27 54.1207 468.273 54.9105C468.273 55.652 468.189 56.3139 468.021 56.8963C467.857 57.4759 467.619 57.9688 467.31 58.375C467 58.7812 466.626 59.0909 466.189 59.304C465.751 59.5142 465.263 59.6193 464.723 59.6193C464.141 59.6193 463.626 59.5071 463.18 59.2827C462.734 59.0554 462.375 58.7472 462.102 58.358C461.832 57.9659 461.669 57.5256 461.612 57.0369H463.432C463.503 57.3551 463.652 57.6023 463.879 57.7784C464.107 57.9517 464.388 58.0384 464.723 58.0384C465.291 58.0384 465.723 57.7912 466.018 57.2969C466.314 56.7997 466.463 56.1193 466.466 55.2557H466.406C466.276 55.5114 466.099 55.7315 465.878 55.9162C465.656 56.098 465.402 56.2386 465.115 56.3381C464.831 56.4375 464.528 56.4872 464.207 56.4872C463.693 56.4872 463.234 56.3665 462.831 56.125C462.428 55.8835 462.109 55.5511 461.876 55.1278C461.643 54.7045 461.527 54.2216 461.527 53.679C461.524 53.0938 461.659 52.5724 461.932 52.1151C462.205 51.6577 462.585 51.2997 463.074 51.0412C463.565 50.7798 464.136 50.6506 464.787 50.6534ZM464.8 52.1023C464.513 52.1023 464.257 52.1705 464.033 52.3068C463.811 52.4432 463.635 52.6264 463.504 52.8565C463.376 53.0866 463.314 53.3437 463.317 53.6278C463.317 53.9148 463.379 54.1733 463.504 54.4034C463.632 54.6307 463.805 54.8125 464.024 54.9489C464.246 55.0824 464.499 55.1491 464.783 55.1491C464.996 55.1491 465.193 55.1094 465.375 55.0298C465.557 54.9503 465.714 54.8409 465.848 54.7017C465.984 54.5597 466.091 54.3963 466.168 54.2116C466.244 54.027 466.283 53.831 466.283 53.6236C466.28 53.348 466.214 53.0952 466.087 52.8651C465.959 52.6349 465.783 52.4503 465.558 52.3111C465.334 52.1719 465.081 52.1023 464.8 52.1023ZM474.328 57.8636V57.4034C474.328 57.054 474.402 56.733 474.55 56.4403C474.7 56.1449 474.918 55.9091 475.202 55.733C475.489 55.554 475.838 55.4645 476.25 55.4645C476.668 55.4645 477.018 55.5526 477.303 55.7287C477.589 55.9048 477.805 56.1406 477.95 56.4361C478.098 56.7287 478.172 57.0511 478.172 57.4034V57.8636C478.172 58.2131 478.098 58.5355 477.95 58.831C477.803 59.1236 477.585 59.358 477.298 59.5341C477.011 59.7131 476.662 59.8026 476.25 59.8026C475.832 59.8026 475.482 59.7131 475.197 59.5341C474.913 59.358 474.697 59.1236 474.55 58.831C474.402 58.5355 474.328 58.2131 474.328 57.8636ZM475.568 57.4034V57.8636C475.568 58.0653 475.616 58.2557 475.713 58.4347C475.813 58.6136 475.991 58.7031 476.25 58.7031C476.509 58.7031 476.685 58.6151 476.778 58.4389C476.875 58.2628 476.923 58.071 476.923 57.8636V57.4034C476.923 57.196 476.878 57.0028 476.787 56.8239C476.696 56.6449 476.517 56.5554 476.25 56.5554C475.994 56.5554 475.817 56.6449 475.717 56.8239C475.618 57.0028 475.568 57.196 475.568 57.4034ZM469.849 52.8693V52.4091C469.849 52.0568 469.925 51.7344 470.075 51.4418C470.226 51.1463 470.443 50.9105 470.727 50.7344C471.014 50.5582 471.361 50.4702 471.767 50.4702C472.188 50.4702 472.54 50.5582 472.824 50.7344C473.108 50.9105 473.324 51.1463 473.472 51.4418C473.619 51.7344 473.693 52.0568 473.693 52.4091V52.8693C473.693 53.2216 473.618 53.544 473.467 53.8366C473.32 54.1293 473.102 54.3636 472.815 54.5398C472.531 54.7131 472.182 54.7997 471.767 54.7997C471.352 54.7997 471.001 54.7116 470.714 54.5355C470.43 54.3565 470.214 54.1222 470.067 53.8324C469.922 53.5398 469.849 53.2187 469.849 52.8693ZM471.098 52.4091V52.8693C471.098 53.0767 471.146 53.2685 471.243 53.4446C471.342 53.6207 471.517 53.7088 471.767 53.7088C472.028 53.7088 472.206 53.6207 472.3 53.4446C472.396 53.2685 472.445 53.0767 472.445 52.8693V52.4091C472.445 52.2017 472.399 52.0085 472.308 51.8295C472.217 51.6506 472.037 51.5611 471.767 51.5611C471.514 51.5611 471.339 51.652 471.243 51.8338C471.146 52.0156 471.098 52.2074 471.098 52.4091ZM470.412 59.5L476.412 50.7727H477.528L471.528 59.5H470.412Z" fill="#565353"/>
</g>
<g clip-path="url(#clip1_231_2503)">
<path d="M131 150.5H467" stroke="#A8A8B2" stroke-width="28" stroke-linecap="round"/>
<path d="M131 150.5H407" stroke="#87CEEB" stroke-width="28" stroke-linecap="round"/>
<path d="M117.759 120.5V111.773H121.253C121.895 111.773 122.43 111.868 122.859 112.058C123.288 112.249 123.611 112.513 123.827 112.851C124.043 113.186 124.151 113.572 124.151 114.01C124.151 114.351 124.082 114.651 123.946 114.909C123.81 115.165 123.622 115.375 123.384 115.54C123.148 115.702 122.878 115.817 122.574 115.885V115.97C122.906 115.984 123.217 116.078 123.507 116.251C123.8 116.425 124.037 116.668 124.219 116.98C124.401 117.29 124.491 117.659 124.491 118.088C124.491 118.551 124.376 118.964 124.146 119.328C123.919 119.689 123.582 119.974 123.136 120.185C122.69 120.395 122.141 120.5 121.487 120.5H117.759ZM119.604 118.991H121.108C121.622 118.991 121.997 118.893 122.233 118.697C122.469 118.499 122.587 118.234 122.587 117.905C122.587 117.663 122.528 117.45 122.412 117.266C122.295 117.081 122.129 116.936 121.913 116.831C121.7 116.726 121.446 116.673 121.151 116.673H119.604V118.991ZM119.604 115.425H120.972C121.224 115.425 121.449 115.381 121.645 115.293C121.844 115.202 122 115.074 122.114 114.909C122.23 114.744 122.288 114.547 122.288 114.317C122.288 114.001 122.176 113.747 121.952 113.554C121.73 113.361 121.415 113.264 121.006 113.264H119.604V115.425ZM125.692 120.5V111.773H131.573V113.294H127.537V115.374H131.27V116.895H127.537V118.979H131.59V120.5H125.692ZM137.774 114.283C137.74 113.939 137.594 113.672 137.335 113.482C137.077 113.291 136.726 113.196 136.283 113.196C135.982 113.196 135.727 113.239 135.52 113.324C135.313 113.406 135.153 113.521 135.043 113.669C134.935 113.817 134.881 113.984 134.881 114.172C134.875 114.328 134.908 114.464 134.979 114.581C135.053 114.697 135.153 114.798 135.281 114.884C135.409 114.966 135.557 115.038 135.724 115.101C135.892 115.161 136.071 115.212 136.261 115.254L137.045 115.442C137.426 115.527 137.776 115.641 138.094 115.783C138.412 115.925 138.688 116.099 138.92 116.307C139.153 116.514 139.334 116.759 139.462 117.04C139.592 117.321 139.659 117.643 139.662 118.007C139.659 118.541 139.523 119.004 139.253 119.396C138.986 119.786 138.599 120.088 138.094 120.304C137.591 120.517 136.984 120.624 136.274 120.624C135.57 120.624 134.956 120.516 134.433 120.3C133.913 120.084 133.507 119.764 133.214 119.341C132.925 118.915 132.773 118.388 132.759 117.76H134.544C134.564 118.053 134.648 118.297 134.795 118.493C134.946 118.686 135.146 118.832 135.396 118.932C135.649 119.028 135.935 119.077 136.253 119.077C136.565 119.077 136.837 119.031 137.067 118.94C137.3 118.849 137.48 118.723 137.608 118.561C137.736 118.399 137.8 118.213 137.8 118.003C137.8 117.807 137.741 117.642 137.625 117.509C137.511 117.375 137.344 117.261 137.122 117.168C136.903 117.074 136.635 116.989 136.317 116.912L135.366 116.673C134.631 116.494 134.05 116.214 133.624 115.834C133.197 115.453 132.986 114.94 132.989 114.295C132.986 113.767 133.126 113.305 133.411 112.911C133.697 112.516 134.091 112.207 134.591 111.986C135.091 111.764 135.659 111.653 136.295 111.653C136.943 111.653 137.509 111.764 137.991 111.986C138.477 112.207 138.855 112.516 139.125 112.911C139.395 113.305 139.534 113.763 139.543 114.283H137.774ZM140.571 113.294V111.773H147.738V113.294H145.066V120.5H143.243V113.294H140.571ZM159.396 114.828H157.53C157.496 114.587 157.426 114.372 157.321 114.185C157.216 113.994 157.081 113.832 156.916 113.699C156.751 113.565 156.561 113.463 156.345 113.392C156.132 113.321 155.901 113.286 155.651 113.286C155.199 113.286 154.805 113.398 154.47 113.622C154.135 113.844 153.875 114.168 153.69 114.594C153.506 115.017 153.413 115.531 153.413 116.136C153.413 116.759 153.506 117.281 153.69 117.705C153.878 118.128 154.139 118.447 154.474 118.663C154.81 118.879 155.197 118.987 155.638 118.987C155.885 118.987 156.114 118.955 156.324 118.889C156.537 118.824 156.726 118.729 156.891 118.604C157.055 118.476 157.192 118.321 157.3 118.139C157.411 117.957 157.487 117.75 157.53 117.517L159.396 117.526C159.348 117.926 159.227 118.312 159.034 118.685C158.844 119.054 158.587 119.385 158.263 119.678C157.942 119.967 157.558 120.197 157.112 120.368C156.669 120.536 156.168 120.619 155.608 120.619C154.83 120.619 154.134 120.443 153.52 120.091C152.909 119.739 152.426 119.229 152.071 118.561C151.719 117.893 151.543 117.085 151.543 116.136C151.543 115.185 151.722 114.375 152.08 113.707C152.438 113.04 152.923 112.531 153.537 112.182C154.151 111.83 154.841 111.653 155.608 111.653C156.114 111.653 156.582 111.724 157.014 111.866C157.449 112.009 157.834 112.216 158.169 112.489C158.504 112.759 158.777 113.089 158.987 113.482C159.2 113.874 159.337 114.322 159.396 114.828ZM168.739 116.136C168.739 117.088 168.559 117.898 168.198 118.565C167.84 119.233 167.352 119.743 166.732 120.095C166.116 120.445 165.423 120.619 164.653 120.619C163.877 120.619 163.181 120.443 162.565 120.091C161.948 119.739 161.461 119.229 161.103 118.561C160.745 117.893 160.566 117.085 160.566 116.136C160.566 115.185 160.745 114.375 161.103 113.707C161.461 113.04 161.948 112.531 162.565 112.182C163.181 111.83 163.877 111.653 164.653 111.653C165.423 111.653 166.116 111.83 166.732 112.182C167.352 112.531 167.84 113.04 168.198 113.707C168.559 114.375 168.739 115.185 168.739 116.136ZM166.869 116.136C166.869 115.52 166.776 115 166.592 114.577C166.41 114.153 166.153 113.832 165.82 113.614C165.488 113.395 165.099 113.286 164.653 113.286C164.207 113.286 163.817 113.395 163.485 113.614C163.153 113.832 162.894 114.153 162.71 114.577C162.528 115 162.437 115.52 162.437 116.136C162.437 116.753 162.528 117.273 162.71 117.696C162.894 118.119 163.153 118.44 163.485 118.659C163.817 118.878 164.207 118.987 164.653 118.987C165.099 118.987 165.488 118.878 165.82 118.659C166.153 118.44 166.41 118.119 166.592 117.696C166.776 117.273 166.869 116.753 166.869 116.136ZM170.106 111.773H172.382L174.785 117.636H174.887L177.291 111.773H179.566V120.5H177.777V114.82H177.704L175.446 120.457H174.227L171.968 114.798H171.896V120.5H170.106V111.773ZM181.087 120.5V111.773H184.53C185.192 111.773 185.756 111.899 186.222 112.152C186.688 112.402 187.043 112.75 187.287 113.196C187.534 113.639 187.658 114.151 187.658 114.73C187.658 115.31 187.533 115.821 187.283 116.264C187.033 116.707 186.67 117.053 186.196 117.3C185.724 117.547 185.153 117.67 184.483 117.67H182.288V116.192H184.185C184.54 116.192 184.832 116.131 185.062 116.009C185.295 115.884 185.469 115.712 185.582 115.493C185.699 115.271 185.757 115.017 185.757 114.73C185.757 114.44 185.699 114.187 185.582 113.972C185.469 113.753 185.295 113.584 185.062 113.464C184.83 113.342 184.534 113.281 184.176 113.281H182.932V120.5H181.087ZM189.353 120.5H187.375L190.388 111.773H192.766L195.775 120.5H193.797L191.611 113.767H191.543L189.353 120.5ZM189.229 117.07H193.9V118.51H189.229V117.07ZM204.125 111.773V120.5H202.531L198.734 115.007H198.67V120.5H196.825V111.773H198.444L202.211 117.261H202.288V111.773H204.125ZM205.138 111.773H207.205L209.195 115.531H209.28L211.27 111.773H213.337L210.153 117.415V120.5H208.321V117.415L205.138 111.773ZM225.142 116.136C225.142 117.088 224.961 117.898 224.6 118.565C224.243 119.233 223.754 119.743 223.135 120.095C222.518 120.445 221.825 120.619 221.055 120.619C220.279 120.619 219.583 120.443 218.967 120.091C218.35 119.739 217.863 119.229 217.505 118.561C217.147 117.893 216.968 117.085 216.968 116.136C216.968 115.185 217.147 114.375 217.505 113.707C217.863 113.04 218.35 112.531 218.967 112.182C219.583 111.83 220.279 111.653 221.055 111.653C221.825 111.653 222.518 111.83 223.135 112.182C223.754 112.531 224.243 113.04 224.6 113.707C224.961 114.375 225.142 115.185 225.142 116.136ZM223.271 116.136C223.271 115.52 223.179 115 222.994 114.577C222.812 114.153 222.555 113.832 222.223 113.614C221.89 113.395 221.501 113.286 221.055 113.286C220.609 113.286 220.22 113.395 219.887 113.614C219.555 113.832 219.297 114.153 219.112 114.577C218.93 115 218.839 115.52 218.839 116.136C218.839 116.753 218.93 117.273 219.112 117.696C219.297 118.119 219.555 118.44 219.887 118.659C220.22 118.878 220.609 118.987 221.055 118.987C221.501 118.987 221.89 118.878 222.223 118.659C222.555 118.44 222.812 118.119 222.994 117.696C223.179 117.273 223.271 116.753 223.271 116.136ZM227.593 111.773L229.702 118.403H229.783L231.897 111.773H233.942L230.934 120.5H228.556L225.543 111.773H227.593ZM234.993 120.5V111.773H240.874V113.294H236.838V115.374H240.571V116.895H236.838V118.979H240.891V120.5H234.993ZM242.341 120.5V111.773H245.784C246.443 111.773 247.005 111.891 247.471 112.126C247.94 112.359 248.297 112.69 248.541 113.119C248.788 113.545 248.912 114.047 248.912 114.624C248.912 115.203 248.787 115.702 248.537 116.119C248.287 116.534 247.924 116.852 247.45 117.074C246.978 117.295 246.407 117.406 245.737 117.406H243.431V115.923H245.439C245.791 115.923 246.083 115.875 246.316 115.778C246.549 115.682 246.723 115.537 246.836 115.344C246.953 115.151 247.011 114.911 247.011 114.624C247.011 114.334 246.953 114.089 246.836 113.891C246.723 113.692 246.548 113.541 246.312 113.439C246.079 113.334 245.785 113.281 245.43 113.281H244.186V120.5H242.341ZM247.054 116.528L249.223 120.5H247.186L245.064 116.528H247.054ZM251.72 120.5H249.743L252.755 111.773H255.133L258.142 120.5H256.164L253.978 113.767H253.91L251.72 120.5ZM251.596 117.07H256.267V118.51H251.596V117.07ZM259.192 120.5V111.773H261.037V118.979H264.779V120.5H259.192ZM266.001 120.5V111.773H267.846V118.979H271.587V120.5H266.001Z" fill="#565353"/>
<rect x="379" y="116.5" width="68" height="68" rx="34" fill="white" fill-opacity="0.7"/>
<rect x="379" y="116.5" width="68" height="68" rx="34" stroke="#87CEEB" stroke-width="2"/>
<path d="M403.463 154.619C402.807 154.619 402.223 154.513 401.712 154.3C401.203 154.084 400.804 153.79 400.514 153.418C400.224 153.045 400.08 152.624 400.08 152.152C400.08 151.788 400.162 151.455 400.327 151.151C400.494 150.844 400.722 150.589 401.009 150.388C401.295 150.183 401.616 150.053 401.972 149.996V149.936C401.506 149.842 401.128 149.616 400.838 149.259C400.548 148.898 400.403 148.479 400.403 148.001C400.403 147.55 400.536 147.148 400.8 146.795C401.064 146.44 401.426 146.162 401.886 145.96C402.349 145.756 402.875 145.653 403.463 145.653C404.051 145.653 404.575 145.756 405.036 145.96C405.499 146.165 405.862 146.445 406.126 146.8C406.391 147.152 406.524 147.553 406.527 148.001C406.524 148.482 406.376 148.901 406.084 149.259C405.791 149.616 405.416 149.842 404.959 149.936V149.996C405.308 150.053 405.625 150.183 405.909 150.388C406.196 150.589 406.423 150.844 406.591 151.151C406.761 151.455 406.848 151.788 406.851 152.152C406.848 152.624 406.702 153.045 406.412 153.418C406.122 153.79 405.722 154.084 405.21 154.3C404.702 154.513 404.119 154.619 403.463 154.619ZM403.463 153.264C403.756 153.264 404.011 153.212 404.23 153.107C404.449 152.999 404.619 152.851 404.741 152.663C404.866 152.473 404.929 152.254 404.929 152.007C404.929 151.754 404.865 151.531 404.737 151.338C404.609 151.142 404.436 150.989 404.217 150.878C403.999 150.764 403.747 150.707 403.463 150.707C403.182 150.707 402.93 150.764 402.709 150.878C402.487 150.989 402.313 151.142 402.185 151.338C402.06 151.531 401.997 151.754 401.997 152.007C401.997 152.254 402.058 152.473 402.18 152.663C402.303 152.851 402.474 152.999 402.696 153.107C402.918 153.212 403.173 153.264 403.463 153.264ZM403.463 149.365C403.707 149.365 403.925 149.315 404.115 149.216C404.305 149.116 404.455 148.979 404.562 148.803C404.67 148.626 404.724 148.423 404.724 148.193C404.724 147.966 404.67 147.767 404.562 147.597C404.455 147.423 404.307 147.288 404.119 147.192C403.932 147.092 403.713 147.043 403.463 147.043C403.216 147.043 402.997 147.092 402.807 147.192C402.616 147.288 402.467 147.423 402.359 147.597C402.254 147.767 402.202 147.966 402.202 148.193C402.202 148.423 402.256 148.626 402.364 148.803C402.472 148.979 402.621 149.116 402.811 149.216C403.001 149.315 403.219 149.365 403.463 149.365ZM411.367 154.619C410.73 154.619 410.164 154.51 409.667 154.291C409.172 154.07 408.782 153.766 408.495 153.379C408.211 152.99 408.064 152.541 408.056 152.033H409.914C409.925 152.246 409.995 152.433 410.123 152.595C410.253 152.754 410.426 152.878 410.642 152.966C410.858 153.054 411.101 153.098 411.371 153.098C411.652 153.098 411.901 153.048 412.117 152.949C412.333 152.849 412.502 152.712 412.624 152.536C412.746 152.359 412.807 152.156 412.807 151.926C412.807 151.693 412.742 151.487 412.611 151.308C412.483 151.126 412.299 150.984 412.057 150.882C411.819 150.78 411.534 150.729 411.205 150.729H410.391V149.374H411.205C411.483 149.374 411.729 149.325 411.942 149.229C412.158 149.132 412.326 148.999 412.445 148.828C412.564 148.655 412.624 148.453 412.624 148.223C412.624 148.004 412.571 147.812 412.466 147.648C412.364 147.48 412.219 147.349 412.032 147.256C411.847 147.162 411.631 147.115 411.384 147.115C411.134 147.115 410.905 147.161 410.698 147.251C410.49 147.339 410.324 147.466 410.199 147.631C410.074 147.795 410.007 147.989 409.999 148.21H408.23C408.239 147.707 408.382 147.264 408.661 146.881C408.939 146.497 409.314 146.197 409.786 145.982C410.26 145.763 410.796 145.653 411.392 145.653C411.995 145.653 412.522 145.763 412.973 145.982C413.425 146.2 413.776 146.496 414.026 146.868C414.279 147.237 414.404 147.652 414.401 148.112C414.404 148.601 414.252 149.009 413.945 149.335C413.641 149.662 413.245 149.869 412.756 149.957V150.026C413.398 150.108 413.887 150.331 414.222 150.695C414.56 151.055 414.728 151.507 414.725 152.05C414.728 152.547 414.584 152.989 414.294 153.375C414.007 153.761 413.611 154.065 413.105 154.287C412.6 154.509 412.02 154.619 411.367 154.619ZM420.828 152.864V152.403C420.828 152.054 420.902 151.733 421.05 151.44C421.2 151.145 421.418 150.909 421.702 150.733C421.989 150.554 422.338 150.464 422.75 150.464C423.168 150.464 423.518 150.553 423.803 150.729C424.089 150.905 424.305 151.141 424.45 151.436C424.598 151.729 424.672 152.051 424.672 152.403V152.864C424.672 153.213 424.598 153.536 424.45 153.831C424.303 154.124 424.085 154.358 423.798 154.534C423.511 154.713 423.162 154.803 422.75 154.803C422.332 154.803 421.982 154.713 421.697 154.534C421.413 154.358 421.197 154.124 421.05 153.831C420.902 153.536 420.828 153.213 420.828 152.864ZM422.068 152.403V152.864C422.068 153.065 422.116 153.256 422.213 153.435C422.313 153.614 422.491 153.703 422.75 153.703C423.009 153.703 423.185 153.615 423.278 153.439C423.375 153.263 423.423 153.071 423.423 152.864V152.403C423.423 152.196 423.378 152.003 423.287 151.824C423.196 151.645 423.017 151.555 422.75 151.555C422.494 151.555 422.317 151.645 422.217 151.824C422.118 152.003 422.068 152.196 422.068 152.403ZM416.349 147.869V147.409C416.349 147.057 416.425 146.734 416.575 146.442C416.726 146.146 416.943 145.911 417.227 145.734C417.514 145.558 417.861 145.47 418.267 145.47C418.688 145.47 419.04 145.558 419.324 145.734C419.608 145.911 419.824 146.146 419.972 146.442C420.119 146.734 420.193 147.057 420.193 147.409V147.869C420.193 148.222 420.118 148.544 419.967 148.837C419.82 149.129 419.602 149.364 419.315 149.54C419.031 149.713 418.682 149.8 418.267 149.8C417.852 149.8 417.501 149.712 417.214 149.536C416.93 149.357 416.714 149.122 416.567 148.832C416.422 148.54 416.349 148.219 416.349 147.869ZM417.598 147.409V147.869C417.598 148.077 417.646 148.268 417.743 148.445C417.842 148.621 418.017 148.709 418.267 148.709C418.528 148.709 418.706 148.621 418.8 148.445C418.896 148.268 418.945 148.077 418.945 147.869V147.409C418.945 147.202 418.899 147.009 418.808 146.83C418.717 146.651 418.537 146.561 418.267 146.561C418.014 146.561 417.839 146.652 417.743 146.834C417.646 147.016 417.598 147.207 417.598 147.409ZM416.912 154.5L422.912 145.773H424.028L418.028 154.5H416.912Z" fill="#565353"/>
</g>
<path d="M117.759 215.5V206.773H121.253C121.895 206.773 122.43 206.868 122.859 207.058C123.288 207.249 123.611 207.513 123.827 207.851C124.043 208.186 124.151 208.572 124.151 209.01C124.151 209.351 124.082 209.651 123.946 209.909C123.81 210.165 123.622 210.375 123.384 210.54C123.148 210.702 122.878 210.817 122.574 210.885V210.97C122.906 210.984 123.217 211.078 123.507 211.251C123.8 211.425 124.037 211.668 124.219 211.98C124.401 212.29 124.491 212.659 124.491 213.088C124.491 213.551 124.376 213.964 124.146 214.328C123.919 214.689 123.582 214.974 123.136 215.185C122.69 215.395 122.141 215.5 121.487 215.5H117.759ZM119.604 213.991H121.108C121.622 213.991 121.997 213.893 122.233 213.697C122.469 213.499 122.587 213.234 122.587 212.905C122.587 212.663 122.528 212.45 122.412 212.266C122.295 212.081 122.129 211.936 121.913 211.831C121.7 211.726 121.446 211.673 121.151 211.673H119.604V213.991ZM119.604 210.425H120.972C121.224 210.425 121.449 210.381 121.645 210.293C121.844 210.202 122 210.074 122.114 209.909C122.23 209.744 122.288 209.547 122.288 209.317C122.288 209.001 122.176 208.747 121.952 208.554C121.73 208.361 121.415 208.264 121.006 208.264H119.604V210.425ZM125.692 215.5V206.773H131.573V208.294H127.537V210.374H131.27V211.895H127.537V213.979H131.59V215.5H125.692ZM137.774 209.283C137.74 208.939 137.594 208.672 137.335 208.482C137.077 208.291 136.726 208.196 136.283 208.196C135.982 208.196 135.727 208.239 135.52 208.324C135.313 208.406 135.153 208.521 135.043 208.669C134.935 208.817 134.881 208.984 134.881 209.172C134.875 209.328 134.908 209.464 134.979 209.581C135.053 209.697 135.153 209.798 135.281 209.884C135.409 209.966 135.557 210.038 135.724 210.101C135.892 210.161 136.071 210.212 136.261 210.254L137.045 210.442C137.426 210.527 137.776 210.641 138.094 210.783C138.412 210.925 138.688 211.099 138.92 211.307C139.153 211.514 139.334 211.759 139.462 212.04C139.592 212.321 139.659 212.643 139.662 213.007C139.659 213.541 139.523 214.004 139.253 214.396C138.986 214.786 138.599 215.088 138.094 215.304C137.591 215.517 136.984 215.624 136.274 215.624C135.57 215.624 134.956 215.516 134.433 215.3C133.913 215.084 133.507 214.764 133.214 214.341C132.925 213.915 132.773 213.388 132.759 212.76H134.544C134.564 213.053 134.648 213.297 134.795 213.493C134.946 213.686 135.146 213.832 135.396 213.932C135.649 214.028 135.935 214.077 136.253 214.077C136.565 214.077 136.837 214.031 137.067 213.94C137.3 213.849 137.48 213.723 137.608 213.561C137.736 213.399 137.8 213.213 137.8 213.003C137.8 212.807 137.741 212.642 137.625 212.509C137.511 212.375 137.344 212.261 137.122 212.168C136.903 212.074 136.635 211.989 136.317 211.912L135.366 211.673C134.631 211.494 134.05 211.214 133.624 210.834C133.197 210.453 132.986 209.94 132.989 209.295C132.986 208.767 133.126 208.305 133.411 207.911C133.697 207.516 134.091 207.207 134.591 206.986C135.091 206.764 135.659 206.653 136.295 206.653C136.943 206.653 137.509 206.764 137.991 206.986C138.477 207.207 138.855 207.516 139.125 207.911C139.395 208.305 139.534 208.763 139.543 209.283H137.774ZM140.571 208.294V206.773H147.738V208.294H145.066V215.5H143.243V208.294H140.571ZM159.396 209.828H157.53C157.496 209.587 157.426 209.372 157.321 209.185C157.216 208.994 157.081 208.832 156.916 208.699C156.751 208.565 156.561 208.463 156.345 208.392C156.132 208.321 155.901 208.286 155.651 208.286C155.199 208.286 154.805 208.398 154.47 208.622C154.135 208.844 153.875 209.168 153.69 209.594C153.506 210.017 153.413 210.531 153.413 211.136C153.413 211.759 153.506 212.281 153.69 212.705C153.878 213.128 154.139 213.447 154.474 213.663C154.81 213.879 155.197 213.987 155.638 213.987C155.885 213.987 156.114 213.955 156.324 213.889C156.537 213.824 156.726 213.729 156.891 213.604C157.055 213.476 157.192 213.321 157.3 213.139C157.411 212.957 157.487 212.75 157.53 212.517L159.396 212.526C159.348 212.926 159.227 213.312 159.034 213.685C158.844 214.054 158.587 214.385 158.263 214.678C157.942 214.967 157.558 215.197 157.112 215.368C156.669 215.536 156.168 215.619 155.608 215.619C154.83 215.619 154.134 215.443 153.52 215.091C152.909 214.739 152.426 214.229 152.071 213.561C151.719 212.893 151.543 212.085 151.543 211.136C151.543 210.185 151.722 209.375 152.08 208.707C152.438 208.04 152.923 207.531 153.537 207.182C154.151 206.83 154.841 206.653 155.608 206.653C156.114 206.653 156.582 206.724 157.014 206.866C157.449 207.009 157.834 207.216 158.169 207.489C158.504 207.759 158.777 208.089 158.987 208.482C159.2 208.874 159.337 209.322 159.396 209.828ZM168.739 211.136C168.739 212.088 168.559 212.898 168.198 213.565C167.84 214.233 167.352 214.743 166.732 215.095C166.116 215.445 165.423 215.619 164.653 215.619C163.877 215.619 163.181 215.443 162.565 215.091C161.948 214.739 161.461 214.229 161.103 213.561C160.745 212.893 160.566 212.085 160.566 211.136C160.566 210.185 160.745 209.375 161.103 208.707C161.461 208.04 161.948 207.531 162.565 207.182C163.181 206.83 163.877 206.653 164.653 206.653C165.423 206.653 166.116 206.83 166.732 207.182C167.352 207.531 167.84 208.04 168.198 208.707C168.559 209.375 168.739 210.185 168.739 211.136ZM166.869 211.136C166.869 210.52 166.776 210 166.592 209.577C166.41 209.153 166.153 208.832 165.82 208.614C165.488 208.395 165.099 208.286 164.653 208.286C164.207 208.286 163.817 208.395 163.485 208.614C163.153 208.832 162.894 209.153 162.71 209.577C162.528 210 162.437 210.52 162.437 211.136C162.437 211.753 162.528 212.273 162.71 212.696C162.894 213.119 163.153 213.44 163.485 213.659C163.817 213.878 164.207 213.987 164.653 213.987C165.099 213.987 165.488 213.878 165.82 213.659C166.153 213.44 166.41 213.119 166.592 212.696C166.776 212.273 166.869 211.753 166.869 211.136ZM170.106 206.773H172.382L174.785 212.636H174.887L177.291 206.773H179.566V215.5H177.777V209.82H177.704L175.446 215.457H174.227L171.968 209.798H171.896V215.5H170.106V206.773ZM181.087 215.5V206.773H184.53C185.192 206.773 185.756 206.899 186.222 207.152C186.688 207.402 187.043 207.75 187.287 208.196C187.534 208.639 187.658 209.151 187.658 209.73C187.658 210.31 187.533 210.821 187.283 211.264C187.033 211.707 186.67 212.053 186.196 212.3C185.724 212.547 185.153 212.67 184.483 212.67H182.288V211.192H184.185C184.54 211.192 184.832 211.131 185.062 211.009C185.295 210.884 185.469 210.712 185.582 210.493C185.699 210.271 185.757 210.017 185.757 209.73C185.757 209.44 185.699 209.187 185.582 208.972C185.469 208.753 185.295 208.584 185.062 208.464C184.83 208.342 184.534 208.281 184.176 208.281H182.932V215.5H181.087ZM189.353 215.5H187.375L190.388 206.773H192.766L195.775 215.5H193.797L191.611 208.767H191.543L189.353 215.5ZM189.229 212.07H193.9V213.51H189.229V212.07ZM204.125 206.773V215.5H202.531L198.734 210.007H198.67V215.5H196.825V206.773H198.444L202.211 212.261H202.288V206.773H204.125ZM205.138 206.773H207.205L209.195 210.531H209.28L211.27 206.773H213.337L210.153 212.415V215.5H208.321V212.415L205.138 206.773ZM217.122 206.773H219.397L221.801 212.636H221.903L224.306 206.773H226.582V215.5H224.792V209.82H224.72L222.461 215.457H221.243L218.984 209.798H218.912V215.5H217.122V206.773ZM229.947 206.773V215.5H228.102V206.773H229.947ZM238.765 206.773V215.5H237.172L233.375 210.007H233.311V215.5H231.466V206.773H233.085L236.852 212.261H236.929V206.773H238.765ZM242.135 206.773V215.5H240.29V206.773H242.135ZM243.653 206.773H245.929L248.332 212.636H248.434L250.838 206.773H253.113V215.5H251.324V209.82H251.251L248.993 215.457H247.774L245.515 209.798H245.443V215.5H243.653V206.773ZM260.024 206.773H261.869V212.44C261.869 213.077 261.717 213.634 261.413 214.111C261.112 214.588 260.69 214.96 260.148 215.227C259.605 215.491 258.973 215.624 258.251 215.624C257.527 215.624 256.893 215.491 256.351 215.227C255.808 214.96 255.386 214.588 255.085 214.111C254.784 213.634 254.634 213.077 254.634 212.44V206.773H256.479V212.283C256.479 212.615 256.551 212.911 256.696 213.169C256.844 213.428 257.051 213.631 257.318 213.778C257.585 213.926 257.896 214 258.251 214C258.609 214 258.92 213.926 259.185 213.778C259.452 213.631 259.658 213.428 259.803 213.169C259.95 212.911 260.024 212.615 260.024 212.283V206.773ZM263.387 206.773H265.663L268.066 212.636H268.169L270.572 206.773H272.848V215.5H271.058V209.82H270.985L268.727 215.457H267.508L265.25 209.798H265.177V215.5H263.387V206.773Z" fill="#565353"/>
<path d="M131 245.5H467" stroke="#A8A8B2" stroke-width="28" stroke-linecap="round"/>
<path d="M131 245.5H237" stroke="#777777" stroke-width="28" stroke-linecap="round"/>
<rect x="209" y="211.5" width="68" height="68" rx="34" fill="white" fill-opacity="0.7"/>
<rect x="209" y="211.5" width="68" height="68" rx="34" stroke="#777777" stroke-width="2"/>
<path d="M230.075 247.966V246.513L233.719 240.773H234.972V242.784H234.23L231.933 246.419V246.487H237.111V247.966H230.075ZM234.264 249.5V247.523L234.298 246.879V240.773H236.028V249.5H234.264ZM241.762 249.692C241.029 249.689 240.398 249.509 239.87 249.151C239.344 248.793 238.94 248.274 238.656 247.595C238.374 246.916 238.235 246.099 238.238 245.145C238.238 244.193 238.379 243.382 238.66 242.712C238.944 242.041 239.349 241.531 239.874 241.182C240.403 240.83 241.032 240.653 241.762 240.653C242.492 240.653 243.12 240.83 243.646 241.182C244.174 241.534 244.58 242.045 244.864 242.716C245.148 243.384 245.289 244.193 245.286 245.145C245.286 246.102 245.144 246.92 244.86 247.599C244.579 248.278 244.175 248.797 243.65 249.155C243.124 249.513 242.495 249.692 241.762 249.692ZM241.762 248.162C242.262 248.162 242.661 247.911 242.96 247.408C243.258 246.905 243.406 246.151 243.403 245.145C243.403 244.483 243.335 243.932 243.198 243.491C243.065 243.051 242.874 242.72 242.627 242.499C242.383 242.277 242.094 242.166 241.762 242.166C241.265 242.166 240.867 242.415 240.569 242.912C240.271 243.409 240.12 244.153 240.117 245.145C240.117 245.815 240.184 246.375 240.317 246.824C240.454 247.27 240.646 247.605 240.893 247.83C241.14 248.051 241.43 248.162 241.762 248.162ZM251.379 247.864V247.403C251.379 247.054 251.453 246.733 251.6 246.44C251.751 246.145 251.968 245.909 252.252 245.733C252.539 245.554 252.889 245.464 253.301 245.464C253.718 245.464 254.069 245.553 254.353 245.729C254.64 245.905 254.856 246.141 255.001 246.436C255.149 246.729 255.223 247.051 255.223 247.403V247.864C255.223 248.213 255.149 248.536 255.001 248.831C254.853 249.124 254.636 249.358 254.349 249.534C254.062 249.713 253.713 249.803 253.301 249.803C252.883 249.803 252.532 249.713 252.248 249.534C251.964 249.358 251.748 249.124 251.6 248.831C251.453 248.536 251.379 248.213 251.379 247.864ZM252.619 247.403V247.864C252.619 248.065 252.667 248.256 252.764 248.435C252.863 248.614 253.042 248.703 253.301 248.703C253.559 248.703 253.735 248.615 253.829 248.439C253.926 248.263 253.974 248.071 253.974 247.864V247.403C253.974 247.196 253.929 247.003 253.838 246.824C253.747 246.645 253.568 246.555 253.301 246.555C253.045 246.555 252.868 246.645 252.768 246.824C252.669 247.003 252.619 247.196 252.619 247.403ZM246.9 242.869V242.409C246.9 242.057 246.975 241.734 247.126 241.442C247.277 241.146 247.494 240.911 247.778 240.734C248.065 240.558 248.412 240.47 248.818 240.47C249.238 240.47 249.591 240.558 249.875 240.734C250.159 240.911 250.375 241.146 250.522 241.442C250.67 241.734 250.744 242.057 250.744 242.409V242.869C250.744 243.222 250.669 243.544 250.518 243.837C250.37 244.129 250.153 244.364 249.866 244.54C249.582 244.713 249.233 244.8 248.818 244.8C248.403 244.8 248.052 244.712 247.765 244.536C247.481 244.357 247.265 244.122 247.118 243.832C246.973 243.54 246.9 243.219 246.9 242.869ZM248.149 242.409V242.869C248.149 243.077 248.197 243.268 248.294 243.445C248.393 243.621 248.568 243.709 248.818 243.709C249.079 243.709 249.257 243.621 249.35 243.445C249.447 243.268 249.495 243.077 249.495 242.869V242.409C249.495 242.202 249.45 242.009 249.359 241.83C249.268 241.651 249.088 241.561 248.818 241.561C248.565 241.561 248.39 241.652 248.294 241.834C248.197 242.016 248.149 242.207 248.149 242.409ZM247.463 249.5L253.463 240.773H254.579L248.579 249.5H247.463Z" fill="#565353"/>
<defs>
<clipPath id="clip0_231_2503">
<rect width="385" height="79" fill="white" transform="translate(117 11.5)"/>
</clipPath>
<clipPath id="clip1_231_2503">
<rect width="365" height="79" fill="white" transform="translate(117 106.5)"/>
</clipPath>
</defs>
</svg>
