<svg width="64" height="64" viewBox="0 0 64 64" fill="none" xmlns="http://www.w3.org/2000/svg">
<g clip-path="url(#clip0_231_2615)">
<path d="M40.8287 16.6329C42.5519 16.6329 43.9538 15.2311 43.9538 13.5079C43.9538 11.7848 42.5519 10.3828 40.8287 10.3828C39.1056 10.3828 37.7037 11.7848 37.7037 13.5079C37.7037 14.2117 37.9378 14.8617 38.3319 15.3847L33.1974 22.5598C32.891 22.4592 32.5641 22.4039 32.2244 22.4039C31.4032 22.4039 30.6555 22.7228 30.0972 23.2426L26.6749 21.3006C26.7205 21.0886 26.745 20.8688 26.745 20.6434C26.745 18.9203 25.3431 17.5184 23.62 17.5184C21.8969 17.5184 20.495 18.9203 20.495 20.6434C20.495 20.8688 20.5195 21.0886 20.5651 21.3006L17.1427 23.2426C16.5845 22.7228 15.8368 22.4041 15.0156 22.4041C13.2925 22.4041 11.8906 23.8061 11.8906 25.5292C11.8906 27.2523 13.2925 28.6543 15.0156 28.6543C16.7387 28.6543 18.1406 27.2523 18.1406 25.5292C18.1406 25.3038 18.1161 25.0841 18.0705 24.8721L21.4929 22.9301C22.0511 23.4498 22.7989 23.7687 23.62 23.7687C24.4411 23.7687 25.1888 23.4498 25.7471 22.9302L29.1695 24.8722C29.1239 25.0842 29.0994 25.3039 29.0994 25.5293C29.0994 27.2524 30.5012 28.6544 32.2244 28.6544C33.9476 28.6544 35.3495 27.2524 35.3495 25.5293C35.3495 24.8254 35.1154 24.1753 34.7213 23.6523L39.8557 16.4772C40.162 16.5777 40.489 16.6329 40.8287 16.6329ZM40.8287 12.2578C41.518 12.2578 42.0787 12.8186 42.0787 13.5079C42.0787 14.1972 41.518 14.7579 40.8287 14.7579C40.1395 14.7579 39.5787 14.1972 39.5787 13.5079C39.5786 12.8186 40.1394 12.2578 40.8287 12.2578ZM15.0153 26.7791C14.326 26.7791 13.7653 26.2183 13.7653 25.5289C13.7653 24.8396 14.326 24.2788 15.0153 24.2788C15.7045 24.2788 16.2653 24.8396 16.2653 25.5289C16.2653 26.2183 15.7045 26.7791 15.0153 26.7791ZM23.6198 21.8934C22.9305 21.8934 22.3698 21.3327 22.3698 20.6433C22.3698 19.9541 22.9305 19.3933 23.6198 19.3933C24.309 19.3933 24.8698 19.9541 24.8698 20.6433C24.8699 21.3327 24.309 21.8934 23.6198 21.8934ZM32.2242 26.7791C31.535 26.7791 30.9743 26.2183 30.9743 25.5289C30.9743 24.8396 31.535 24.2788 32.2242 24.2788C32.9136 24.2788 33.4744 24.8396 33.4744 25.5289C33.4744 26.2183 32.9135 26.7791 32.2242 26.7791Z" fill="#228B22"/>
<path d="M52.3495 47.1208H45.7887H10.0535H2.65188C2.2235 47.1208 1.875 46.7723 1.875 46.3439V7.66652C1.875 7.23815 2.2235 6.88965 2.65188 6.88965H7.07137C7.58912 6.88965 8.00887 6.47002 8.00887 5.95215C8.00887 5.43427 7.58912 5.01465 7.07137 5.01465H2.65188C1.18963 5.01465 0 6.20427 0 7.66652V46.3439C0 47.8061 1.18963 48.9958 2.65188 48.9958H9.116V51.059C9.116 52.2344 10.0723 53.1906 11.2476 53.1906H20.6319L16.2144 61.8154C15.9784 62.2763 16.1605 62.8411 16.6214 63.0773C16.7581 63.1474 16.9041 63.1805 17.048 63.1805C17.3886 63.1805 17.7173 62.9943 17.8831 62.6701L22.7385 53.1906H33.1037L37.9591 62.6701C38.1251 62.9943 38.4536 63.1805 38.7943 63.1805C38.9381 63.1805 39.0841 63.1471 39.2209 63.0773C39.6818 62.8411 39.864 62.2763 39.6279 61.8154L35.2104 53.1906H44.5946C45.77 53.1906 46.7262 52.2345 46.7262 51.059V48.9958H52.3495C52.8672 48.9958 53.287 48.5761 53.287 48.0583C53.287 47.5404 52.8672 47.1208 52.3495 47.1208ZM44.8512 51.059C44.8512 51.2005 44.7361 51.3156 44.5946 51.3156H11.2476C11.1061 51.3156 10.991 51.2005 10.991 51.059V48.9958H44.8512V51.059Z" fill="#228B22"/>
<path d="M10.8223 6.88957H23.6563H32.1876H53.1911C53.6195 6.88957 53.968 7.23807 53.968 7.66645V16.5803C53.968 17.0982 54.3878 17.5178 54.9055 17.5178C55.4233 17.5178 55.843 17.0982 55.843 16.5803V7.66645C55.843 6.2042 54.6534 5.01457 53.1911 5.01457H33.1253V3.17182C33.1253 1.87495 32.0701 0.819824 30.7731 0.819824H25.0709C23.774 0.819824 22.7188 1.87495 22.7188 3.17182V5.01457H10.8223C10.3045 5.01457 9.88477 5.4342 9.88477 5.95207C9.88477 6.46995 10.3045 6.88957 10.8223 6.88957ZM24.5938 3.17182C24.5938 2.90882 24.8078 2.69482 25.0709 2.69482H30.7731C31.0361 2.69482 31.2503 2.90882 31.2503 3.17182V5.01457H24.5939V3.17182H24.5938Z" fill="#228B22"/>
<path d="M13.1133 33.4473C12.5955 33.4473 12.1758 33.8669 12.1758 34.3848V42.6688C12.1758 43.1866 12.5955 43.6063 13.1133 43.6063H16.9167C17.4344 43.6063 17.8542 43.1866 17.8542 42.6688V34.3848C17.8542 33.8669 17.4344 33.4473 16.9167 33.4473H13.1133ZM15.9792 41.7314H14.0508V35.3224H15.9792V41.7314Z" fill="#228B22"/>
<path d="M21.7168 28.6562C21.199 28.6562 20.7793 29.0759 20.7793 29.5938V42.6689C20.7793 43.1867 21.199 43.6064 21.7168 43.6064H25.5202C26.0379 43.6064 26.4577 43.1867 26.4577 42.6689V29.5938C26.4577 29.0759 26.0379 28.6562 25.5202 28.6562H21.7168ZM24.5828 41.7314H22.6544V30.5312H24.5828V41.7314Z" fill="#228B22"/>
<path d="M30.3223 33.4473C29.8045 33.4473 29.3848 33.8669 29.3848 34.3848V42.6688C29.3848 43.1866 29.8045 43.6063 30.3223 43.6063H34.1256C34.6434 43.6063 35.0631 43.1866 35.0631 42.6688V34.3848C35.0631 33.8669 34.6434 33.4473 34.1256 33.4473H30.3223ZM33.1881 41.7314H31.2598V35.3224H33.1881V41.7314Z" fill="#228B22"/>
<path d="M38.9258 38.979C38.408 38.979 37.9883 39.3986 37.9883 39.9165V42.6686C37.9883 43.1865 38.408 43.6061 38.9258 43.6061H42.7292C43.2469 43.6061 43.6667 43.1865 43.6667 42.6686C43.6667 42.1508 43.2469 41.7311 42.7292 41.7311H39.8633V39.9165C39.8633 39.3986 39.4435 38.979 38.9258 38.979Z" fill="#228B22"/>
<path d="M63.5219 48.0027L58.1435 38.6869C59.5061 37.2345 60.4984 35.4599 61.0284 33.4819C61.8755 30.3205 61.4407 27.0184 59.8042 24.1839C56.426 18.3323 48.9171 16.3207 43.0659 19.6988C37.2145 23.0769 35.2026 30.5858 38.5809 36.4372C40.2174 39.2717 42.8597 41.2992 46.0211 42.1464C47.0769 42.4293 48.148 42.5692 49.2124 42.5692C50.1426 42.5692 51.0675 42.4622 51.972 42.2504L57.3493 51.5664C58.0084 52.7085 59.2086 53.3477 60.4414 53.3475C61.0455 53.3475 61.6575 53.1939 62.2174 52.8709C63.3169 52.2363 64 51.0529 64 49.7827C64 49.1603 63.8347 48.5449 63.5219 48.0027ZM46.5064 40.3353C43.8287 39.6178 41.5906 37.9004 40.2045 35.4997C37.3432 30.5437 39.0474 24.1839 44.0032 21.3225C45.6336 20.3813 47.4152 19.9343 49.175 19.9343C52.7644 19.9343 56.2604 21.7959 58.1804 25.1214C59.5664 27.5222 59.9346 30.3189 59.2171 32.9967C58.4996 35.6744 56.7822 37.9123 54.3815 39.2984C51.9809 40.6845 49.1841 41.0525 46.5064 40.3353ZM61.2803 51.2469C60.4736 51.7127 59.4386 51.4354 58.9733 50.6292L53.7998 41.6662C54.3183 41.4545 54.826 41.207 55.3192 40.9223C55.8129 40.6373 56.2804 40.32 56.723 39.9765L61.898 48.9399C62.0465 49.1975 62.125 49.489 62.125 49.7828C62.125 50.385 61.8013 50.9462 61.2803 51.2469Z" fill="#228B22"/>
<path d="M57.6924 32.9514C58.3542 30.8194 58.1966 28.5369 57.2485 26.5244C57.0277 26.0559 56.4692 25.8552 56.0009 26.0758C55.5324 26.2966 55.3316 26.8551 55.5524 27.3234C56.3002 28.9109 56.4244 30.7121 55.9017 32.3953C55.3762 34.0878 54.241 35.5082 52.7051 36.3949C51.0799 37.3334 49.1862 37.5824 47.3736 37.0968C45.5609 36.6111 44.0456 35.4484 43.1074 33.8232C41.1702 30.4681 42.324 26.1626 45.6791 24.2254C48.1322 22.8093 51.1766 22.9986 53.4355 24.7076C53.8485 25.0201 54.4364 24.9387 54.7487 24.5257C55.0611 24.1128 54.9797 23.5248 54.5667 23.2124C51.7054 21.0473 47.8486 20.8077 44.7415 22.6016C42.6825 23.7903 41.2096 25.7098 40.5942 28.0063C39.9789 30.3028 40.2947 32.7016 41.4835 34.7606C42.6722 36.8197 44.5917 38.2924 46.8882 38.9079C47.6551 39.1134 48.4334 39.2151 49.2065 39.2151C50.7487 39.2151 52.2711 38.8106 53.6425 38.0187C55.5884 36.8954 57.0266 35.0959 57.6924 32.9514Z" fill="#228B22"/>
</g>
<defs>
<clipPath id="clip0_231_2615">
<rect width="64" height="64" fill="white"/>
</clipPath>
</defs>
</svg>
