<svg width="64" height="64" viewBox="0 0 64 64" fill="none" xmlns="http://www.w3.org/2000/svg">
<g clip-path="url(#clip0_231_2629)">
<path d="M48.5335 0H5.86668C2.92267 0.00346668 0.536792 2.38934 0.533325 5.33336V39.4668C0.533059 41.8995 2.17893 44.0239 4.53441 44.6317L5.06774 42.5666C3.654 42.202 2.66613 40.9268 2.66667 39.4668V5.33336C2.66667 3.56602 4.09934 2.13334 5.86668 2.13334H48.5335C50.3009 2.13334 51.7335 3.56602 51.7335 5.33336V6.40003H53.8669V5.33336C53.8634 2.38934 51.4775 0.00346668 48.5335 0Z" fill="#228B22"/>
<path d="M6.93412 4.2666H4.80078V6.39994H6.93412V4.2666Z" fill="#228B22"/>
<path d="M11.1997 4.2666H9.06641V6.39994H11.1997V4.2666Z" fill="#228B22"/>
<path d="M15.4673 4.2666H13.334V6.39994H15.4673V4.2666Z" fill="#228B22"/>
<path d="M63.1536 58.9796L53.0362 48.8622C53.5677 47.9136 53.9927 46.909 54.3034 45.867H55.9994V43.7337H54.7621C55.1638 41.1517 54.8541 38.509 53.8661 36.0899V25.6003H51.7327V32.3928C51.0993 31.5836 50.3844 30.8416 49.5994 30.1784V21.3336H47.466V28.6872C46.7832 28.2915 46.0698 27.9508 45.3327 27.6685V17.0669H43.1994V27.0211C42.4964 26.8693 41.7835 26.7692 41.066 26.7213V19.2002H38.9327V26.7213C38.2152 26.7692 37.5023 26.8693 36.7993 27.0211V23.4669H34.666V27.6685C33.9289 27.9508 33.2156 28.2915 32.5326 28.6872V22.4003H30.3993V30.1784C29.6142 30.8416 28.8994 31.5836 28.266 32.3928V24.5336H26.1326V36.0899C25.1446 38.509 24.8349 41.1517 25.2366 43.7337H11.1992V45.867H25.6953C28.0348 53.758 36.3281 58.2583 44.219 55.9188C45.7739 55.4577 47.2432 54.746 48.569 53.8116L58.4453 63.6879C58.8618 64.1043 59.537 64.1043 59.9536 63.6879L63.1536 60.4879C63.57 60.0713 63.57 59.3961 63.1536 58.9796ZM39.9993 54.4004C32.9332 54.3928 27.2069 48.6665 27.1993 41.6003C27.1993 34.5311 32.9301 28.8003 39.9993 28.8003C47.0686 28.8003 52.7994 34.5311 52.7994 41.6003C52.7994 48.6696 47.0686 54.4004 39.9993 54.4004ZM59.1994 61.4255L50.2266 52.4526C50.8079 51.9033 51.3447 51.3088 51.8319 50.6745L60.8912 59.7337L59.1994 61.4255Z" fill="#228B22"/>
<path d="M40.0007 30.9336C34.1096 30.9336 29.334 35.7092 29.334 41.6003C29.334 47.4914 34.1096 52.267 40.0007 52.267C45.8918 52.267 50.6674 47.4914 50.6674 41.6003C50.661 35.7119 45.8891 30.94 40.0007 30.9336ZM40.0007 50.1337C36.9559 50.1298 34.1439 48.5038 32.6215 45.867H47.3799C45.8575 48.5038 43.0455 50.1298 40.0007 50.1337ZM31.7479 43.7336C30.8896 40.4856 32.0356 37.0376 34.6673 34.9496V41.6003H36.8007V33.6952C37.4847 33.4184 38.2019 33.232 38.934 33.1405V41.6003H41.0674V33.1405C41.7995 33.232 42.5167 33.4184 43.2007 33.6952V41.6003H45.3341V34.9496C47.9658 37.0376 49.1118 40.4856 48.2535 43.7336H31.7479Z" fill="#228B22"/>
<path d="M54.9336 8.5332H12.2667C9.32269 8.53667 6.93682 10.9225 6.93335 13.8666V48C6.93682 50.944 9.32269 53.3299 12.2667 53.3334H26.1334V51.2001H12.2667C10.4994 51.2001 9.06669 49.7674 9.06669 48V13.8666C9.06669 12.0992 10.4994 10.6665 12.2667 10.6665H54.9336C56.7009 10.6665 58.1336 12.0992 58.1336 13.8666V48C58.1334 48.7794 57.849 49.5318 57.3336 50.1163L58.9336 51.5275C59.7933 50.5536 60.2674 49.2991 60.2669 48V13.8666C60.2634 10.9225 57.8776 8.53667 54.9336 8.5332Z" fill="#228B22"/>
<path d="M13.3326 12.8003H11.1992V14.9336H13.3326V12.8003Z" fill="#228B22"/>
<path d="M17.6001 12.8003H15.4667V14.9336H17.6001V12.8003Z" fill="#228B22"/>
<path d="M21.8677 12.8003H19.7344V14.9336H21.8677V12.8003Z" fill="#228B22"/>
<path d="M15.4673 35.2002H13.334V41.6002H15.4673V35.2002Z" fill="#228B22"/>
<path d="M19.733 28.8003H17.5996V41.6003H19.733V28.8003Z" fill="#228B22"/>
<path d="M24.0005 32H21.8672V41.6H24.0005V32Z" fill="#228B22"/>
</g>
<defs>
<clipPath id="clip0_231_2629">
<rect width="64" height="64" fill="white"/>
</clipPath>
</defs>
</svg>
