<svg width="64" height="64" viewBox="0 0 64 64" fill="none" xmlns="http://www.w3.org/2000/svg">
<g clip-path="url(#clip0_231_2672)">
<path d="M31.9995 64.0001C48.2154 63.9013 61.3898 50.881 61.6794 34.6675C61.9691 18.4539 49.2681 4.97136 33.0661 4.29341V2.05981C33.0693 1.31996 32.6773 0.634688 32.0379 0.262477C31.4268 -0.0928519 30.6711 -0.0891777 30.0635 0.272077L24.4763 3.54568C23.8497 3.92344 23.4666 4.60172 23.4666 5.33341C23.4666 6.0651 23.8497 6.74338 24.4763 7.12114L30.0645 10.3947C30.672 10.7554 31.427 10.759 32.0379 10.4043C32.6773 10.0321 33.0693 9.34686 33.0661 8.60701V6.42674C48.2337 7.01054 60.114 19.679 59.7236 34.8528C59.3333 50.0266 46.8173 62.0674 31.6397 61.8706C16.4622 61.6737 4.26278 49.3122 4.26615 34.1334C4.26615 33.5443 3.78858 33.0667 3.19948 33.0667C2.61038 33.0667 2.13281 33.5443 2.13281 34.1334C2.15162 50.6205 15.5124 63.9813 31.9995 64.0001ZM25.6219 5.34728L30.9328 2.24008L30.9552 5.22034C30.9458 5.25762 30.9383 5.29536 30.9328 5.33341C30.9386 5.37659 30.9471 5.41934 30.9584 5.46141L30.9819 8.46088L25.6219 5.34728Z" fill="#228B22"/>
<path d="M3.3558 30.9218C3.40979 30.9302 3.46437 30.9342 3.519 30.9336C4.04709 30.933 4.49524 30.5461 4.57287 30.0237C4.62407 29.6781 4.67954 29.3357 4.74567 28.9954C4.8438 28.4209 4.46251 27.8739 3.88945 27.7672C3.31639 27.6605 2.76381 28.0336 2.6486 28.605C2.58033 28.9709 2.5174 29.34 2.463 29.7101C2.37631 30.2909 2.77539 30.8326 3.3558 30.9218Z" fill="#228B22"/>
<path d="M4.47953 25.5395C4.7463 25.6341 5.03973 25.6188 5.29521 25.497C5.55069 25.3751 5.74727 25.1567 5.84167 24.8899C5.96469 24.5443 6.0934 24.2019 6.2278 23.8627C6.36918 23.5087 6.31095 23.1061 6.07505 22.8066C5.83914 22.5072 5.4614 22.3563 5.08411 22.4109C4.70683 22.4655 4.38731 22.7172 4.24593 23.0712C4.10371 23.436 3.9654 23.8047 3.831 24.1774C3.73634 24.444 3.75149 24.7373 3.87312 24.9928C3.99475 25.2482 4.21288 25.4449 4.47953 25.5395Z" fill="#228B22"/>
<path d="M6.81273 20.1112C7.05442 20.2586 7.3448 20.3039 7.6199 20.2371C7.895 20.1702 8.13225 19.9968 8.27939 19.7549C8.49273 19.4072 8.71139 19.0648 8.93539 18.7277C9.26353 18.2382 9.13267 17.5753 8.64313 17.2472C8.15358 16.9191 7.49073 17.0499 7.16259 17.5395C6.91939 17.9029 6.68402 18.2716 6.45646 18.6456C6.15022 19.1487 6.30971 19.8048 6.81273 20.1112Z" fill="#228B22"/>
<path d="M10.6668 15.8518C10.9678 15.8519 11.2549 15.7249 11.4572 15.5019C11.7292 15.2011 12.0097 14.9067 12.2956 14.6177C12.7106 14.1994 12.708 13.5239 12.2897 13.1089C11.8714 12.6939 11.1959 12.6965 10.7809 13.1147C10.4716 13.4262 10.1701 13.7441 9.87638 14.0683C9.59271 14.3809 9.52008 14.8314 9.69111 15.2173C9.86214 15.6032 10.2447 15.852 10.6668 15.8518Z" fill="#228B22"/>
<path d="M14.9319 11.9999C15.1601 11.9983 15.3818 11.9235 15.5644 11.7866C15.8488 11.5782 16.1354 11.3752 16.4241 11.1775C16.9116 10.8467 17.0387 10.1834 16.7079 9.69589C16.3771 9.2084 15.7138 9.08137 15.2263 9.41215C14.9112 9.62549 14.6016 9.84486 14.2972 10.0703C13.9222 10.3427 13.7661 10.8262 13.9109 11.2665C14.0557 11.7068 14.4684 12.0032 14.9319 11.9999Z" fill="#228B22"/>
<path d="M19.3818 9.30446C19.5433 9.30434 19.7026 9.26789 19.848 9.19779C20.1324 9.05984 20.4169 8.92686 20.7013 8.79886C21.0492 8.64338 21.2878 8.31409 21.3271 7.93503C21.3664 7.55597 21.2005 7.18474 20.8919 6.96116C20.5833 6.73759 20.1788 6.69564 19.8309 6.85112C19.5216 6.98979 19.2165 7.13166 18.9125 7.27779C18.4643 7.49487 18.2259 7.99325 18.3383 8.47845C18.4506 8.96365 18.8838 9.30651 19.3818 9.30446Z" fill="#228B22"/>
<path d="M13.8655 50.1335H50.1322C50.7213 50.1335 51.1988 49.6559 51.1988 49.0668C51.1988 48.4777 50.7213 48.0001 50.1322 48.0001H46.9322V25.6001C46.9322 24.4219 45.977 23.4668 44.7988 23.4668H42.6655C41.4873 23.4668 40.5322 24.4219 40.5322 25.6001V48.0001H38.3988V29.8668C38.3988 28.6886 37.4437 27.7335 36.2655 27.7335H34.1322C32.954 27.7335 31.9988 28.6886 31.9988 29.8668V48.0001H29.8655V34.1335C29.8655 32.9553 28.9104 32.0001 27.7322 32.0001H25.5988C24.4206 32.0001 23.4655 32.9553 23.4655 34.1335V48.0001H21.3322V40.5335C21.3322 39.3553 20.377 38.4001 19.1988 38.4001H17.0655C15.8873 38.4001 14.9322 39.3553 14.9322 40.5335V48.0001H13.8655C13.2764 48.0001 12.7988 48.4777 12.7988 49.0668C12.7988 49.6559 13.2764 50.1335 13.8655 50.1335ZM42.6655 25.6001H44.7988V48.0001H42.6655V25.6001ZM34.1322 29.8668H36.2655V48.0001H34.1322V29.8668ZM25.5988 34.1335H27.7322V48.0001H25.5988V34.1335ZM17.0655 40.5335H19.1988V48.0001H17.0655V40.5335Z" fill="#228B22"/>
<path d="M15.0837 33.6119C15.2759 33.9351 15.624 34.1333 16 34.1335C16.1916 34.1338 16.3797 34.0818 16.544 33.9831L43.1541 18.1847L42.6987 20.0076C42.63 20.2822 42.6732 20.5728 42.8188 20.8155C42.9645 21.0582 43.2006 21.233 43.4752 21.3015C43.5596 21.323 43.6463 21.3338 43.7333 21.3335C44.2222 21.333 44.6481 21.0003 44.7669 20.526L45.8336 16.2594C45.9023 15.9848 45.8591 15.6942 45.7134 15.4515C45.5678 15.2089 45.3317 15.034 45.0571 14.9655L40.7904 13.8988C40.4172 13.7965 40.0179 13.9043 39.7469 14.1806C39.4759 14.4568 39.3757 14.8581 39.4852 15.2293C39.5947 15.6005 39.8966 15.8832 40.2741 15.9682L41.9808 16.3948L15.4549 32.1495C15.2117 32.2942 15.036 32.5295 14.9664 32.8038C14.8968 33.0781 14.939 33.3688 15.0837 33.6119Z" fill="#228B22"/>
</g>
<defs>
<clipPath id="clip0_231_2672">
<rect width="64" height="64" fill="white"/>
</clipPath>
</defs>
</svg>
